PathFileType	4	(X/Y/Z)	C249e_D251_DD_1_S001_1.trc
DataRate	CameraRate	NumFrames	NumMarkers	Units	OrigDataRate	OrigDataStartFrame	OrigNumFrames
50.0	50.0	5	54	mm	50.0	236	314
Frame#	Time		Q_WaistRFront		Q_WaistLFront		Q_WaistL		Q_WaistR		Q_WaistBack		Q_LThighFrontLow		Q_RThighFrontLow		Q_RKneeIn		Q_RKneeOut		Q_RShinFrontHigh		Q_LKneeIn		Q_LKneeOut		Q_LShinFrontHigh		Q_RForefoot5		Q_RForefoot2		Q_RHeelBack		Q_RAnkleOut		Q_LForefoot5		Q_LForefoot2		Q_LHeelBack		Q_LAnkleOut		Q_SpineThoracic2		Q_Chest		Q_SpineThoracic12		Q_HeadL		Q_HeadR		Q_HeadFront		Q_LShoulderTop		Q_LArm		Q_LElbowOut		Q_LElbowIn		Q_LWristOut		Q_LWristIn		Q_LHand2		Q_RShoulderTop		Q_RArm		Q_RElbowOut		Q_RElbowIn		Q_RWristOut		Q_RWristIn		Q_RHand2		RHipAngles		LHipAngles		RKneeAngles		LKneeAngles		RAnkleAngles		LAnkleAngles		RShoulderAngles		LShoulderAngles		RElbowAngles		LElbowAngles		RWristAngles		LWristAngles		Neck
			X1	Y1	Z1	X2	Y2	Z2	X3	Y3	Z3	X4	Y4	Z4	X5	Y5	Z5	X6	Y6	Z6	X7	Y7	Z7	X8	Y8	Z8	X9	Y9	Z9	X10	Y10	Z10	X11	Y11	Z11	X12	Y12	Z12	X13	Y13	Z13	X14	Y14	Z14	X15	Y15	Z15	X16	Y16	Z16	X17	Y17	Z17	X18	Y18	Z18	X19	Y19	Z19	X20	Y20	Z20	X21	Y21	Z21	X22	Y22	Z22	X23	Y23	Z23	X24	Y24	Z24	X25	Y25	Z25	X26	Y26	Z26	X27	Y27	Z27	X28	Y28	Z28	X29	Y29	Z29	X30	Y30	Z30	X31	Y31	Z31	X32	Y32	Z32	X33	Y33	Z33	X34	Y34	Z34	X35	Y35	Z35	X36	Y36	Z36	X37	Y37	Z37	X38	Y38	Z38	X39	Y39	Z39	X40	Y40	Z40	X41	Y41	Z41	X42	Y42	Z42	X43	Y43	Z43	X44	Y44	Z44	X45	Y45	Z45	X46	Y46	Z46	X47	Y47	Z47	X48	Y48	Z48	X49	Y49	Z49	X50	Y50	Z50	X51	Y51	Z51	X52	Y52	Z52	X53	Y53	Z53	X54	Y54	Z54

236	4.70000	94.48645	840.04688	211.38708	-161.98929	841.06104	208.87224	-162.59209	851.59021	274.59464	93.88364	850.57599	277.10953	-34.35423	851.08307	275.85208	-91.75353	474.19849	260.11856	29.35775	474.11069	241.23331	-28.88609	421.27042	251.03165	110.85914	419.83572	259.35095	38.88529	219.56760	255.82700	-33.72591	422.86255	276.92807	-173.68790	419.83557	275.71445	-99.25574	220.83669	263.09451	115.13715	35.96666	204.58302	66.47005	45.14384	197.70609	43.57348	29.06348	338.28226	101.82147	57.63942	330.64597	-171.36047	38.87265	195.25133	-122.13953	46.93390	191.74214	-108.50967	25.09230	332.74448	-165.41537	55.54210	322.63132	-38.03595	1312.68384	373.46786	-29.38223	743.41443	93.24615	-38.03595	1312.68384	373.46786	-97.36741	1483.36658	226.71822	41.66664	1478.36987	242.35703	-20.09242	1479.06946	164.99210	-180.87112	1311.66370	272.12790	-243.05081	1118.73792	271.46436	-324.79047	1059.41980	239.10728	-237.33363	1015.70758	218.11823	-375.50125	833.71271	185.74237	-376.42999	853.82941	139.97714	-439.51428	764.60376	140.99196	110.25017	1313.88428	276.13300	156.32175	1113.87646	276.19781	241.85254	1051.42480	281.78809	183.11528	1026.17212	204.89702	312.82181	835.47266	213.29617	340.57315	863.76099	182.80635	399.72470	775.88867	192.19058	-10.64730	-5.50570	3.20063	-7.13429	-6.94212	-0.04171	-7.49871	5.27215	-0.04384	0.04819	5.47536	0.05698	-12.46092	5.94776	-9.39997	-10.86493	5.96427	-7.23779	2.24632	43.49475	60.20789	0.83871	-8.70708	60.82697	-7.17775	-8.70708	14.97505	-10.38261	-0.00000	14.97505	8.33334	-12.95241	14.97505	-6.12007	-8.23864	-0.00000	-13.89584	-2.40973	1.22209
237	4.72000	94.50181	840.32074	210.89398	-161.96596	842.16699	208.06023	-162.61826	852.48010	273.81641	93.84950	850.63385	276.65021	-34.38438	851.55701	275.23331	-92.01117	474.96658	260.01450	29.07425	474.10938	242.47263	-29.13652	421.36441	252.64122	110.61361	419.92801	260.87738	38.71894	219.66035	255.97575	-33.96995	423.80655	276.99326	-173.92627	420.52621	275.78445	-99.13625	221.64528	263.42221	115.08324	35.96524	203.55481	66.39442	45.05581	196.71661	43.58875	28.63690	337.26843	101.77431	57.34923	329.66782	-171.17809	39.21819	195.98450	-121.92262	47.02493	192.38547	-108.27779	25.99561	333.50980	-165.04767	56.65042	323.25357	-37.03175	1312.01636	372.60013	-29.38825	742.39893	93.05704	-37.03175	1312.01636	372.60013	-97.32816	1482.58716	228.07390	41.83973	1478.15649	242.65689	-20.48916	1479.13477	165.75336	-179.85162	1311.03992	271.76804	-239.44029	1116.71887	272.00485	-317.00748	1053.93762	236.10463	-227.17027	1011.82166	223.63382	-357.96277	824.68158	189.98047	-356.00653	842.65765	143.36465	-416.80865	751.66626	145.75581	111.39874	1310.75659	274.99603	152.50470	1109.52441	275.09244	236.28954	1044.64917	279.36957	175.17322	1020.50433	203.99174	297.04251	824.76074	213.63338	325.37704	851.32959	182.14926	379.76376	759.61224	194.97508	-10.09486	-5.31020	3.03858	-6.76931	-7.13809	0.05401	-6.71547	5.23222	-0.04943	0.14487	5.37912	-0.00161	-12.19225	5.94414	-9.28690	-10.61887	5.96014	-6.86103	2.19519	42.54428	61.93483	0.77501	-4.10456	63.33687	-6.27727	-4.10456	14.63303	-10.43698	-0.00000	14.63303	7.91245	-14.78646	14.63303	-7.24355	-7.21552	-0.00000	-13.30275	-2.02558	1.20317
238	4.74000	93.47794	840.71484	209.65791	-162.99553	842.71466	207.52419	-163.46387	852.84058	273.31104	93.00957	850.84082	275.44479	-35.22715	851.84070	274.37793	-92.42532	475.37097	259.54361	28.56334	474.16995	242.75766	-29.48396	421.40271	253.49429	110.31104	420.19415	260.97116	38.74952	219.81252	255.85768	-34.24648	424.36365	276.59665	-174.19629	420.78778	275.47440	-98.99667	222.04018	263.45782	114.90694	35.72856	202.51930	66.21333	45.00986	195.97778	44.19510	28.64806	336.66183	102.44481	57.13569	328.71490	-170.79048	39.33819	196.45982	-121.52905	47.07914	192.80077	-107.80924	26.50575	333.98508	-164.55281	57.18812	323.66580	-37.56895	1311.28467	371.47586	-30.54680	741.33972	92.58496	-37.56895	1311.28467	371.47586	-97.14852	1482.15576	227.93855	41.91381	1477.11292	243.30841	-19.96238	1478.67883	166.04985	-180.31528	1309.79529	271.11279	-237.04404	1114.21240	272.28647	-310.15286	1048.01233	233.30408	-218.63829	1007.90662	229.22789	-341.95270	816.16455	193.32278	-336.91928	832.42816	146.31046	-392.33255	739.87036	144.56552	111.04813	1307.95276	273.90219	147.61292	1105.72302	274.58600	229.69066	1038.66016	278.16406	166.73370	1015.45721	204.01527	282.55637	816.12213	214.56276	311.23529	841.36926	182.31213	362.91248	748.19897	196.02820	-9.66166	-5.16980	2.86998	-6.51823	-7.27290	0.06330	-6.26599	5.20020	-0.06237	0.10545	5.36309	-0.13848	-11.98267	5.94559	-9.60684	-10.55660	5.94132	-6.67897	2.31282	41.72164	63.53890	0.54446	0.28982	65.73770	-5.91146	0.28982	14.96562	-10.51370	-0.00000	14.96562	8.35672	-15.07728	14.96562	-5.48896	-5.53122	-0.00000	-12.93254	-2.15487	1.42226
239	4.76000	93.48303	841.45776	209.02318	-162.99176	843.58539	207.19319	-163.37944	853.46777	273.01758	93.09534	851.34015	274.84760	-35.14206	852.40399	273.93259	-92.76925	475.95688	258.92984	28.80142	474.68405	241.99684	-29.14222	421.84790	252.68962	110.65426	420.79895	260.16266	39.33871	220.33810	254.72810	-34.64483	424.87802	275.96735	-174.59953	421.47910	274.90335	-99.65709	222.62718	263.00620	115.38194	35.52280	201.15443	66.74352	45.10433	194.63533	44.74241	29.17541	335.37167	103.16761	57.27041	327.31598	-171.75734	39.54840	196.28329	-122.47872	47.14929	192.56232	-108.73498	27.20414	333.83438	-165.40747	57.97911	323.40085	-37.12899	1311.13806	371.04410	-30.70946	741.00751	92.51797	-37.12899	1311.13806	371.04410	-96.64720	1481.97900	228.07161	42.42200	1476.75439	243.31821	-19.50377	1478.83948	166.11166	-179.83740	1309.85315	270.33240	-234.50914	1113.34546	273.00742	-303.36050	1044.04419	231.73015	-210.99675	1005.91339	235.60059	-327.66525	810.09076	199.50909	-319.72440	824.53436	152.30396	-366.88684	729.44415	150.86266	111.32269	1308.30286	273.26648	143.64365	1104.76270	274.67032	223.51242	1035.01404	276.42551	157.40749	1013.09167	204.66515	264.69000	809.08771	216.21890	293.46246	832.36914	182.60167	339.59763	736.20386	197.87392	-9.45649	-5.08730	2.74472	-6.29917	-7.22742	0.03603	-6.15642	5.19077	0.13375	0.06794	5.36325	-0.14699	-11.70529	5.94812	-10.03937	-10.33756	5.94450	-6.60923	2.27569	40.07516	65.63489	0.07842	4.50168	67.83108	-5.12404	4.50168	14.32818	-10.31349	-0.00000	14.32818	8.63986	-16.43809	14.32818	-5.51230	-2.27769	-0.00000	-12.47162	-2.18277	1.38150
240	4.78000	93.65884	841.85455	208.56169	-162.82161	843.90240	207.69899	-162.96573	853.59393	273.55273	93.51471	851.54608	274.41547	-34.72551	852.57001	273.98410	-92.45139	476.09576	259.28488	28.83974	474.91418	241.68434	-29.07764	422.05145	252.55373	110.74333	421.04193	259.55872	39.47621	220.56262	254.17087	-34.35954	425.00076	276.54767	-174.31181	421.65952	275.06903	-99.41570	222.78195	263.30972	115.01222	35.11282	200.15778	66.43165	45.11293	193.83917	44.88591	29.43058	334.67361	103.51791	57.01504	326.36023	-170.94975	38.66573	196.33376	-121.72707	46.70598	192.80087	-108.43469	27.46635	334.21390	-165.34088	57.67387	323.40109	-36.60724	1310.78882	370.64218	-30.78114	740.17804	93.08820	-36.60724	1310.78882	370.64218	-96.71354	1481.51343	228.89146	42.40689	1476.52490	243.74467	-19.71546	1479.20459	166.71457	-179.26189	1309.96912	270.06595	-231.19623	1112.09277	273.09116	-295.61441	1039.94568	229.59309	-202.67238	1004.50110	239.86218	-311.71420	804.75629	201.48837	-301.32861	818.37988	154.51457	-344.46701	721.97095	151.50456	112.14889	1305.56470	271.35834	139.58057	1101.37842	274.32571	217.47296	1029.40820	274.52991	148.09892	1007.99469	205.76434	250.57753	801.50903	216.83064	278.59943	823.46826	181.72272	324.64526	727.52924	196.15015	-9.27560	-5.15198	2.65236	-6.10547	-7.17941	-0.19538	-6.07538	5.23982	0.26062	0.10646	5.37158	-0.27687	-11.54848	5.95684	-10.55497	-10.02482	5.94179	-7.17211	2.50347	38.00331	67.49324	0.05507	7.81678	70.03407	-5.38111	7.81678	13.85331	-10.29213	-0.00000	13.85331	8.87878	-15.30382	13.85331	-4.92080	-1.92392	-0.00000	-11.72159	-2.08312	1.30921
